<?xml version="1.0" encoding="UTF-8"?>
<svg id="Layer_1" data-name="Layer 1" xmlns="http://www.w3.org/2000/svg" xmlns:xlink="http://www.w3.org/1999/xlink" viewBox="0 0 76 32.5">
  <defs>
    <style>
      .cls-1 {
        fill: url(#New_Gradient_Swatch_copy_7-2);
      }

      .cls-1, .cls-2, .cls-3, .cls-4, .cls-5, .cls-6, .cls-7 {
        stroke-width: 0px;
      }

      .cls-2 {
        fill: url(#New_Gradient_Swatch_copy_7-3);
      }

      .cls-3 {
        fill: url(#New_Gradient_Swatch_copy_7-4);
      }

      .cls-4 {
        fill: url(#New_Gradient_Swatch_copy_7-5);
      }

      .cls-5 {
        fill: url(#New_Gradient_Swatch_copy_7-6);
      }

      .cls-6 {
        fill: url(#New_Gradient_Swatch_copy_7-7);
      }

      .cls-7 {
        fill: url(#New_Gradient_Swatch_copy_7);
      }

      .cls-8 {
        fill: none;
        stroke: url(#linear-gradient);
        stroke-miterlimit: 10;
      }
    </style>
    <linearGradient id="New_Gradient_Swatch_copy_7" data-name="New Gradient Swatch copy 7" x1="-13.48" y1="10.24" x2="198.6" y2="40.94" gradientUnits="userSpaceOnUse">
      <stop offset="0" stop-color="#259fdd"/>
      <stop offset=".54" stop-color="#105abf"/>
      <stop offset="1" stop-color="#563e74"/>
    </linearGradient>
    <linearGradient id="New_Gradient_Swatch_copy_7-2" data-name="New Gradient Swatch copy 7" x1="-13.36" y1="9.41" x2="198.72" y2="40.12" xlink:href="#New_Gradient_Swatch_copy_7"/>
    <linearGradient id="New_Gradient_Swatch_copy_7-3" data-name="New Gradient Swatch copy 7" x1="-13.06" y1="7.34" x2="199.02" y2="38.05" xlink:href="#New_Gradient_Swatch_copy_7"/>
    <linearGradient id="New_Gradient_Swatch_copy_7-4" data-name="New Gradient Swatch copy 7" x1="-12.93" y1="6.45" x2="199.15" y2="37.16" xlink:href="#New_Gradient_Swatch_copy_7"/>
    <linearGradient id="New_Gradient_Swatch_copy_7-5" data-name="New Gradient Swatch copy 7" x1="-12.76" y1="5.29" x2="199.32" y2="36" xlink:href="#New_Gradient_Swatch_copy_7"/>
    <linearGradient id="New_Gradient_Swatch_copy_7-6" data-name="New Gradient Swatch copy 7" x1="-12.59" y1="4.1" x2="199.49" y2="34.8" xlink:href="#New_Gradient_Swatch_copy_7"/>
    <linearGradient id="New_Gradient_Swatch_copy_7-7" data-name="New Gradient Swatch copy 7" x1="-12.4" y1="2.82" x2="199.67" y2="33.53" xlink:href="#New_Gradient_Swatch_copy_7"/>
    <linearGradient id="linear-gradient" x1=".61" y1="30.41" x2="75.71" y2="30.41" gradientUnits="userSpaceOnUse">
      <stop offset="0" stop-color="#259fdd"/>
      <stop offset="1" stop-color="#1a56b5"/>
    </linearGradient>
  </defs>
  <g>
    <g>
      <path class="cls-7" d="m10.34,26.91h-3.05l4.84-8.45c-.95.28-1.86.39-2.73.39C4.14,18.85,0,14.3,0,9.36,0,3.54,5.01,0,9.53,0c5.64,0,9.36,4.73,9.36,9.5,0,1.58-.39,3.15-1.23,4.63l-7.32,12.79Zm-.91-24.25c-3.01,0-6.76,2.35-6.76,6.76,0,3.47,2.94,6.8,6.8,6.8,3.33,0,6.8-2.63,6.8-6.83,0-.56-.07-1.16-.25-1.75-.91-3.26-3.71-4.98-6.59-4.98Z"/>
      <path class="cls-1" d="m13.29,6.41c-2.04,1.96-3.34,4.67-3.43,7.65.76-.03,1.51-.2,2.23-.48.18-1.91.99-3.67,2.21-5.05-.23-.8-.58-1.51-1.01-2.12Zm7.64-3.11c-.47,0-.93.03-1.38.09.46.66.84,1.37,1.13,2.11.08,0,.17,0,.25,0,4.83,0,8.85,4.04,8.85,8.87s-4.04,8.85-8.85,8.85c-1.98,0-3.82-.67-5.32-1.8l-1.11,1.94c1.82,1.31,4.04,2.09,6.43,2.09,6.03,0,11.07-5.01,11.07-11.07S26.96,3.3,20.93,3.3Z"/>
    </g>
    <g>
      <path class="cls-2" d="m38.59,18.37v-2.58l-2.23-3.8c-.25-.42-.94-1.53-1.06-1.75h1.51c.21.36.39.7.62,1.08l1.32,2.24c.25.43.45.88.45.97h.06c0-.08.22-.53.46-.97l1.27-2.25c.21-.37.39-.71.59-1.06h1.49c-.34.56-.66,1.13-1,1.72l-2.14,3.78v2.62c0,.49.01,1.42.01,1.68h-1.36c0-.27.01-1.19.01-1.68Z"/>
      <path class="cls-3" d="m44.6,10.24h3.25c.49,0,1.42-.01,1.68-.01v1.26c-.27,0-1.19-.01-1.68-.01h-1.92v2.58h1.23c.49,0,1.42-.01,1.68-.01v1.29c-.27,0-1.19-.01-1.68-.01h-1.23v3.45h2.2c.49,0,1.42-.01,1.68-.01v1.32c-.27,0-1.19-.01-1.68-.01h-3.53v-9.8Z"/>
      <path class="cls-4" d="m58.41,18.67h-5.22l-.17.39c-.13.27-.29.64-.43.98h-1.44c.11-.24.5-1.08.7-1.53l3.91-8.81,4.02,8.81c.2.45.6,1.29.7,1.53h-1.44c-.14-.34-.31-.71-.43-.98l-.18-.39Zm-1.01-1.23c.27,0,.45.06.49.08l.03-.06s-.1-.08-.22-.36l-1.55-3.4c-.28-.6-.35-.98-.35-1.05h-.06c0,.07-.07.45-.34,1.05l-1.51,3.4c-.1.22-.21.35-.24.36l.03.06s.24-.08.49-.08h3.24Z"/>
      <path class="cls-5" d="m66.1,18.8l-1.47-3.12h-1.15v2.69c0,.49.01,1.42.01,1.68h-1.36c0-.27.01-1.19.01-1.68v-8.12h2.91c1.64,0,2.72,1.22,2.72,2.72,0,1.23-.74,2.28-1.85,2.55v.03c.06.07.14.2.22.38l1.23,2.62c.27.57.73,1.51.73,1.51h-1.46c-.14-.31-.34-.78-.56-1.25Zm-2.62-7.41v3.11h1.42c.99,0,1.55-.7,1.55-1.55s-.56-1.55-1.55-1.55h-1.42Z"/>
      <path class="cls-6" d="m70.76,17.75c.36.63,1.01,1.26,1.92,1.26,1.01,0,1.61-.6,1.61-1.37,0-1.02-.84-1.64-1.74-2.27-1.09-.77-2.28-1.57-2.28-3,0-1.33,1.01-2.3,2.49-2.3,1.3,0,2.1.73,2.65,1.39l-1.02.77c-.35-.48-.85-.98-1.62-.98s-1.18.49-1.18,1.06c0,.85.83,1.36,1.75,2,1.09.76,2.28,1.64,2.28,3.21s-1.13,2.69-2.94,2.69c-1.55,0-2.55-.94-3.05-1.85l1.13-.62Z"/>
    </g>
  </g>
  <line class="cls-8" x1="75.71" y1="30.41" x2=".61" y2="30.41"/>
</svg>